<?xml version="1.0" encoding="UTF-8" standalone="no"?>
<svg
   xmlns:dc="http://purl.org/dc/elements/1.1/"
   xmlns:cc="http://creativecommons.org/ns#"
   xmlns:rdf="http://www.w3.org/1999/02/22-rdf-syntax-ns#"
   xmlns:svg="http://www.w3.org/2000/svg"
   xmlns="http://www.w3.org/2000/svg"
   xmlns:xlink="http://www.w3.org/1999/xlink"
   xmlns:sodipodi="http://sodipodi.sourceforge.net/DTD/sodipodi-0.dtd"
   xmlns:inkscape="http://www.inkscape.org/namespaces/inkscape"
   width="128"
   height="128"
   version="1.1"
   viewBox="927 315.25 128 128"
   id="svg114"
   sodipodi:docname="logo.svg"
   inkscape:version="1.0.2 (e86c870879, 2021-01-15)">
  <defs
     id="defs118">
    <linearGradient
       inkscape:collect="always"
       id="linearGradient947">
      <stop
         style="stop-color:#000000;stop-opacity:1"
         offset="0"
         id="stop943" />
      <stop
         style="stop-color:#ffffff;stop-opacity:0.94602013"
         offset="1"
         id="stop945" />
    </linearGradient>
    <linearGradient
       inkscape:collect="always"
       xlink:href="#linearGradient947"
       id="linearGradient953"
       x1="930"
       y1="318.25"
       x2="1530"
       y2="918.25"
       gradientUnits="userSpaceOnUse" />
  </defs>
  <sodipodi:namedview
     pagecolor="#4e4e4e"
     bordercolor="#666666"
     borderopacity="1"
     objecttolerance="10"
     gridtolerance="10"
     guidetolerance="10"
     inkscape:pageopacity="0"
     inkscape:pageshadow="2"
     inkscape:window-width="2560"
     inkscape:window-height="1412"
     id="namedview116"
     showgrid="false"
     inkscape:zoom="5.8265121"
     inkscape:cx="37.282463"
     inkscape:cy="61.767633"
     inkscape:window-x="0"
     inkscape:window-y="0"
     inkscape:window-maximized="1"
     inkscape:current-layer="g110" />
  <title
     id="title2">txproto logo</title>
  <metadata
     id="metadata4">
    <rdf:RDF>
      <cc:Work
         rdf:about="">
        <dc:format>image/svg+xml</dc:format>
        <dc:type
           rdf:resource="http://purl.org/dc/dcmitype/StillImage" />
        <dc:title>txproto logo</dc:title>
        <cc:license
           rdf:resource="http://creativecommons.org/publicdomain/zero/1.0/" />
        <dc:creator>
          <cc:Agent>
            <dc:title>Lynne</dc:title>
          </cc:Agent>
        </dc:creator>
        <dc:source />
        <dc:relation />
        <dc:description>Generated from the rC3 generator by https://twitter.com/Bleeptrack
https://github.com/bleeptrack/rc3-generator</dc:description>
      </cc:Work>
      <cc:License
         rdf:about="http://creativecommons.org/publicdomain/zero/1.0/">
        <cc:permits
           rdf:resource="http://creativecommons.org/ns#Reproduction" />
        <cc:permits
           rdf:resource="http://creativecommons.org/ns#Distribution" />
        <cc:permits
           rdf:resource="http://creativecommons.org/ns#DerivativeWorks" />
      </cc:License>
    </rdf:RDF>
  </metadata>
  <g
     fill="none"
     font-family="none"
     font-size="none"
     font-weight="none"
     stroke-linecap="none"
     stroke-miterlimit="10"
     stroke-width="none"
     text-anchor="none"
     style="mix-blend-mode:normal"
     id="g112">
    <g
       transform="matrix(.19587 0 0 .19587 745.43 253.5)"
       id="g88">
      <path
         d="m980 968.25v-600h600v600z"
         fill="#000"
         stroke-linecap="butt"
         stroke-width="1"
         id="path6" />
      <g
         stroke-dasharray="4, 10"
         stroke-linecap="round"
         stroke-width="3"
         id="g26">
        <path
           transform="matrix(1.01,0,0,1.01,979.5,367.75)"
           d="m0 100v-100h100v100z"
           fill="#05b9ec"
           id="path8" />
        <path
           transform="matrix(1.01,0,0,1.01,978.5,367.75)"
           d="m100 100v-100h100v100z"
           fill="#0076a9"
           id="path10" />
        <path
           transform="matrix(1.01,0,0,1.01,977.5,367.75)"
           d="m200 100v-100h100v100z"
           fill="#025d84"
           id="path12" />
        <path
           transform="matrix(1.01,0,0,1.01,976.5,367.75)"
           d="m300 100v-100h100v100z"
           fill="#002a3a"
           id="path14" />
        <path
           transform="matrix(1.01,0,0,1.01,975.5,367.75)"
           d="m400 100v-100h100v100z"
           fill="none"
           id="path16" />
        <path
           transform="matrix(1.01,0,0,1.01,974.5,367.75)"
           d="m500 100v-100h100v100z"
           fill="none"
           id="path18" />
        <path
           transform="matrix(1.01,0,0,1.01,979.5,366.75)"
           d="m0 200v-100h100v100z"
           fill="#0076a9"
           id="path20" />
        <path
           transform="matrix(1.01,0,0,1.01,978.5,366.75)"
           d="m100 200v-100h100v100z"
           fill="#025d84"
           id="path22" />
        <path
           transform="matrix(1.01,0,0,1.01,977.5,366.75)"
           d="m200 200v-100h100v100z"
           fill="#002a3a"
           id="path24" />
      </g>
      <g
         fill="none"
         stroke-dasharray="4, 10"
         stroke-linecap="round"
         stroke-width="3"
         id="g34">
        <path
           transform="matrix(1.01,0,0,1.01,976.5,366.75)"
           d="m300 200v-100h100v100z"
           id="path28" />
        <path
           transform="matrix(1.01,0,0,1.01,975.5,366.75)"
           d="m400 200v-100h100v100z"
           id="path30" />
        <path
           transform="matrix(1.01,0,0,1.01,974.5,366.75)"
           d="m500 200v-100h100v100z"
           id="path32" />
      </g>
      <path
         transform="matrix(1.01,0,0,1.01,979.5,365.75)"
         d="m0 300v-100h100v100z"
         fill="#025d84"
         stroke-dasharray="4, 10"
         stroke-linecap="round"
         stroke-width="3"
         id="path36" />
      <path
         transform="matrix(1.01,0,0,1.01,978.5,365.75)"
         d="m100 300v-100h100v100z"
         fill="#002a3a"
         stroke-dasharray="4, 10"
         stroke-linecap="round"
         stroke-width="3"
         id="path38" />
      <g
         fill="none"
         stroke-dasharray="4, 10"
         stroke-linecap="round"
         stroke-width="3"
         id="g48">
        <path
           transform="matrix(1.01,0,0,1.01,977.5,365.75)"
           d="m200 300v-100h100v100z"
           id="path40" />
        <path
           transform="matrix(1.01,0,0,1.01,976.5,365.75)"
           d="m300 300v-100h100v100z"
           id="path42" />
        <path
           transform="matrix(1.01,0,0,1.01,975.5,365.75)"
           d="m400 300v-100h100v100z"
           id="path44" />
        <path
           transform="matrix(1.01,0,0,1.01,974.5,365.75)"
           d="m500 300v-100h100v100z"
           id="path46" />
      </g>
      <path
         transform="matrix(1.01,0,0,1.01,979.5,364.75)"
         d="m0 400v-100h100v100z"
         fill="#002a3a"
         stroke-dasharray="4, 10"
         stroke-linecap="round"
         stroke-width="3"
         id="path50" />
      <g
         fill="none"
         stroke-dasharray="4, 10"
         stroke-linecap="round"
         stroke-width="3"
         id="g86">
        <path
           transform="matrix(1.01,0,0,1.01,978.5,364.75)"
           d="m100 400v-100h100v100z"
           id="path52" />
        <path
           transform="matrix(1.01,0,0,1.01,977.5,364.75)"
           d="m200 400v-100h100v100z"
           id="path54" />
        <path
           transform="matrix(1.01,0,0,1.01,976.5,364.75)"
           d="m300 400v-100h100v100z"
           id="path56" />
        <path
           transform="matrix(1.01,0,0,1.01,975.5,364.75)"
           d="m400 400v-100h100v100z"
           id="path58" />
        <path
           transform="matrix(1.01,0,0,1.01,974.5,364.75)"
           d="m500 400v-100h100v100z"
           id="path60" />
        <path
           transform="matrix(1.01,0,0,1.01,979.5,363.75)"
           d="m0 500v-100h100v100z"
           id="path62" />
        <path
           transform="matrix(1.01,0,0,1.01,978.5,363.75)"
           d="m100 500v-100h100v100z"
           id="path64" />
        <path
           transform="matrix(1.01,0,0,1.01,977.5,363.75)"
           d="m200 500v-100h100v100z"
           id="path66" />
        <path
           transform="matrix(1.01,0,0,1.01,976.5,363.75)"
           d="m300 500v-100h100v100z"
           id="path68" />
        <path
           transform="matrix(1.01,0,0,1.01,975.5,363.75)"
           d="m400 500v-100h100v100z"
           id="path70" />
        <path
           transform="matrix(1.01,0,0,1.01,974.5,363.75)"
           d="m500 500v-100h100v100z"
           id="path72" />
        <path
           transform="matrix(1.01,0,0,1.01,979.5,362.75)"
           d="m0 600v-100h100v100z"
           id="path74" />
        <path
           transform="matrix(1.01,0,0,1.01,978.5,362.75)"
           d="m100 600v-100h100v100z"
           id="path76" />
        <path
           transform="matrix(1.01,0,0,1.01,977.5,362.75)"
           d="m200 600v-100h100v100z"
           id="path78" />
        <path
           transform="matrix(1.01,0,0,1.01,976.5,362.75)"
           d="m300 600v-100h100v100z"
           id="path80" />
        <path
           transform="matrix(1.01,0,0,1.01,975.5,362.75)"
           d="m400 600v-100h100v100z"
           id="path82" />
        <path
           transform="matrix(1.01,0,0,1.01,974.5,362.75)"
           d="m500 600v-100h100v100z"
           id="path84" />
      </g>
    </g>
    <path
       d="m1035.3 423.57v-19.587h19.587v19.587z"
       fill="none"
       stroke-dasharray="0.783595, 1.95898"
       stroke-linecap="round"
       stroke-width=".5876"
       id="path90" />
    <g
       transform="matrix(.19587 0 0 .19587 745.43 253.5)"
       stroke-linecap="butt"
       id="g110">
      <path
         d="m930 918.25v-600h600v600z"
         fill="none"
         stroke="#fff"
         stroke-width="6"
         id="path92"
         style="stroke-width:5.99887681;stroke-miterlimit:10;stroke-dasharray:none;stroke:url(#linearGradient953);stroke-opacity:1" />
      <g
         fill="#fff"
         stroke-width="1"
         id="g108">
        <path
           d="m1482.8 893.25h-63.6c-6.1 0-11.323-2.1733-15.67-6.52-4.3533-4.3533-6.53-9.58-6.53-15.68v-63.6c0-6.1 2.1767-11.323 6.53-15.67 4.3467-4.3533 9.57-6.53 15.67-6.53h63.6c6 0 11.2 2.1767 15.6 6.53 4.4 4.3467 6.6 9.57 6.6 15.67v63.6c0 6.1-2.2 11.327-6.6 15.68-4.4 4.3467-9.6 6.52-15.6 6.52zm-57.6-23.4h51.3 4.95v-4.95-51.3-4.95h-4.95-51.3-4.95v4.95 51.3 4.95h4.95z"
           id="path94" />
        <path
           d="m1345.7 893.25h-23.4v-84.6h-42.3v-23.4h108v23.4h-42.3z"
           id="path96" />
        <path
           d="m1248.8 893.25h-63.6c-6.1 0-11.323-2.1733-15.67-6.52-4.3533-4.3533-6.53-9.58-6.53-15.68v-63.6c0-6.1 2.1767-11.323 6.53-15.67 4.3467-4.3533 9.57-6.53 15.67-6.53h63.6c6 0 11.2 2.1767 15.6 6.53 4.4 4.3467 6.6 9.57 6.6 15.67v63.6c0 6.1-2.2 11.327-6.6 15.68-4.4 4.3467-9.6 6.52-15.6 6.52zm-57.6-23.4h51.3 4.95v-4.95-51.3-4.95h-4.95-51.3-4.95v4.95 51.3 4.95h4.95z"
           id="path98" />
        <path
           d="m1069.2 893.25h-23.25v-107.85h85.65c6.1 0 11.35 2.2 15.75 6.6s6.6 9.6 6.6 15.6v27.9c0 6-2.2 11.2-6.6 15.6s-9.65 6.6-15.75 6.6h-1.05l23.4 27.6v7.95h-24l-29.85-35.55-30.9 0.15zm4.95-58.95h51.3 4.95v-4.95-15.75-4.95h-4.95-51.3-4.95v4.95 15.75 4.95h4.95z"
           id="path100" />
        <path
           d="m1420.2 776.25h-23.25v-107.85h85.65c6.1 0 11.35 2.2 15.75 6.6s6.6 9.6 6.6 15.6v27.9c0 6-2.2 11.2-6.6 15.6s-9.65 6.6-15.75 6.6l-62.4 0.15zm4.95-58.95h51.3 4.95v-4.95-15.75-4.95h-4.95-51.3-4.95v4.95 15.75 4.95h4.95z"
           id="path102" />
        <path
           d="m1304.2 776.25h-24.15v-7.95l38.55-46.05-38.55-46.05v-7.95h24.15l30 35.55 29.7-35.55h24.15v7.95l-38.7 46.05 38.7 45.9v8.1h-24.15l-30-35.4z"
           id="path104" />
        <path
           d="m1228.7 776.25h-23.4v-84.6h-42.3v-23.4h108v23.4h-42.3z"
           id="path106" />
      </g>
    </g>
  </g>
</svg>
